<svg width="400" height="280" viewBox="0 0 400 280" xmlns="http://www.w3.org/2000/svg">
  <defs>
    <linearGradient id="headerGrad" x1="0%" y1="0%" x2="100%" y2="0%">
      <stop offset="0%" style="stop-color:#58a6ff;stop-opacity:0.2" />
      <stop offset="100%" style="stop-color:#a371f7;stop-opacity:0.2" />
    </linearGradient>
  </defs>
  <rect width="400" height="280" rx="12" fill="#161b22"/>
  <rect width="400" height="280" rx="12" fill="none" stroke="#30363d" stroke-width="1"/>
  <rect width="400" height="60" rx="12" fill="url(#headerGrad)"/>
  <rect x="0" y="48" width="400" height="12" fill="#161b22"/>
  <text x="24" y="38" fill="#e6edf3" font-family="system-ui, sans-serif" font-size="16" font-weight="600">Friedrich Malz's GitHub Activity</text>
  <text x="376" y="38" fill="#8b949e" font-family="monospace" font-size="10" text-anchor="end">@malzinger</text>
  <text x="24" y="85" fill="#8b949e" font-size="11">Repositories</text>
  <text x="24" y="105" fill="#e6edf3" font-size="20" font-weight="600">7</text>
  <text x="120" y="85" fill="#8b949e" font-size="11">Total Stars</text>
  <text x="120" y="105" fill="#e6edf3" font-size="20" font-weight="600">0</text>
  <text x="220" y="85" fill="#8b949e" font-size="11">Forks</text>
  <text x="220" y="105" fill="#e6edf3" font-size="20" font-weight="600">0</text>
  <text x="310" y="85" fill="#8b949e" font-size="11">Current Streak</text>
  <text x="310" y="105" fill="#3fb950" font-size="20" font-weight="600">0d</text>
  <text x="24" y="140" fill="#8b949e" font-size="11">Commits (90d)</text>
  <text x="24" y="160" fill="#e6edf3" font-size="20" font-weight="600">0</text>
  <text x="120" y="140" fill="#8b949e" font-size="11">Active Days (30d)</text>
  <text x="120" y="160" fill="#e6edf3" font-size="20" font-weight="600">8</text>
  <text x="220" y="140" fill="#8b949e" font-size="11">Followers</text>
  <text x="220" y="160" fill="#e6edf3" font-size="20" font-weight="600">3</text>
  <text x="24" y="185" fill="#8b949e" font-size="11">Top Languages</text>
  <rect x="24" y="195" width="68" height="8" rx="4" fill="#355570"/><rect x="96" y="195" width="68" height="8" rx="4" fill="#3572A5"/><rect x="168" y="195" width="68" height="8" rx="4" fill="#8b949e"/><rect x="240" y="195" width="68" height="8" rx="4" fill="#239120"/><rect x="312" y="195" width="68" height="8" rx="4" fill="#8b949e"/>
  <circle cx="24" cy="220" r="5" fill="#355570"/><text x="36" y="224" fill="#8b949e" font-size="11">GDScript</text><circle cx="154" cy="220" r="5" fill="#3572A5"/><text x="166" y="224" fill="#8b949e" font-size="11">Python</text><circle cx="284" cy="220" r="5" fill="#8b949e"/><text x="296" y="224" fill="#8b949e" font-size="11">Mathematica</text><circle cx="24" cy="240" r="5" fill="#239120"/><text x="36" y="244" fill="#8b949e" font-size="11">C#</text><circle cx="154" cy="240" r="5" fill="#8b949e"/><text x="166" y="244" fill="#8b949e" font-size="11">ShaderLab</text>
  <text x="24" y="268" fill="#8b949e" font-size="9">Updated: 16.2.2026</text>
  <text x="376" y="268" fill="#8b949e" font-size="9" text-anchor="end">friedev.com</text>
</svg>